<?xml version="1.0" encoding="utf-8"?>
<!-- Generator: Adobe Illustrator 21.1.0, SVG Export Plug-In . SVG Version: 6.00 Build 0)  -->
<svg version="1.1" id="Forma_1_1_" xmlns="http://www.w3.org/2000/svg" xmlns:xlink="http://www.w3.org/1999/xlink" x="0px" y="0px"
	 viewBox="0 0 84 71" style="enable-background:new 0 0 84 71;" xml:space="preserve">
<style type="text/css">
	.st0{fill-rule:evenodd;clip-rule:evenodd;fill:#D91E18;}
</style>
<g id="Forma_1">
	<g>
		<path class="st0" d="M10.1,2.5h63.7c0.7,0,1.3-0.6,1.3-1.2c0-0.7-0.6-1.2-1.3-1.2H10.1C9.4,0,8.8,0.5,8.8,1.2
			C8.8,1.9,9.4,2.5,10.1,2.5z M77.4,8H6.5C3,8,0.2,10.8,0.2,14.2v50.5C0.2,68.2,3,71,6.5,71h70.9c3.5,0,6.3-2.8,6.3-6.2V14.2
			C83.8,10.8,80.9,8,77.4,8z M81.2,64.7c0,2.1-1.7,3.7-3.8,3.7H6.5c-2.1,0-3.8-1.7-3.8-3.7V14.2c0-2.1,1.7-3.7,3.8-3.7h70.9
			c2.1,0,3.8,1.7,3.8,3.7V64.7z M41.6,49.3l-6.8-4.1c2.2-1.7,3.5-4.3,3.6-7.1l0.3-6.6c0-5-4.2-9-9.3-9h-1.8c-5.1,0-9.3,4-9.3,9.1
			l0.3,6.6c0.1,2.8,1.5,5.3,3.6,7.1l-6.7,4.1c-1.9,0.9-3.1,2.8-3.1,4.9v3.3c0,0.7,0.6,1.2,1.3,1.2h29.8c0.7,0,1.3-0.6,1.3-1.2v-3.3
			C44.6,52.1,43.4,50.2,41.6,49.3z M42.1,56.2H14.9v-2.1c0-1.1,0.7-2.2,1.8-2.7l8.5-5.2c0.4-0.2,0.6-0.7,0.6-1.1
			c0-0.5-0.3-0.9-0.7-1.1c-2.4-1.2-3.9-3.5-4-6.1l-0.3-6.5c0-3.6,3-6.5,6.8-6.5h1.8c3.7,0,6.8,2.9,6.8,6.5L35.9,38
			c-0.1,2.6-1.6,4.9-4,6.1c-0.4,0.2-0.7,0.6-0.7,1.1c0,0.5,0.2,0.9,0.6,1.1l8.5,5.2c0,0,0.1,0,0.1,0.1c1,0.5,1.7,1.5,1.7,2.6V56.2z
			 M70.5,28.3H54.8c-0.7,0-1.3,0.6-1.3,1.2c0,0.7,0.6,1.2,1.3,1.2h15.6c0.7,0,1.3-0.6,1.3-1.2C71.7,28.8,71.2,28.3,70.5,28.3z
			 M70.5,39.3H54.8c-0.7,0-1.3,0.6-1.3,1.2c0,0.7,0.6,1.2,1.3,1.2h15.6c0.7,0,1.3-0.6,1.3-1.2C71.7,39.9,71.2,39.3,70.5,39.3z
			 M70.5,50.4H54.8c-0.7,0-1.3,0.6-1.3,1.2c0,0.7,0.6,1.2,1.3,1.2h15.6c0.7,0,1.3-0.6,1.3-1.2C71.7,51,71.2,50.4,70.5,50.4z"/>
	</g>
</g>
</svg>
