<?xml version="1.0" encoding="utf-8"?>
<!-- Generator: Adobe Illustrator 21.1.0, SVG Export Plug-In . SVG Version: 6.00 Build 0)  -->
<svg version="1.1" id="Forma_1_1_" xmlns="http://www.w3.org/2000/svg" xmlns:xlink="http://www.w3.org/1999/xlink" x="0px" y="0px"
	 viewBox="0 0 70.9 79" style="enable-background:new 0 0 70.9 79;" xml:space="preserve">
<style type="text/css">
	.st0{fill-rule:evenodd;clip-rule:evenodd;fill:#D91E18;}
</style>
<g id="Forma_1">
	<g>
		<path class="st0" d="M66.1,0H20c-2.6,0-4.8,2.1-4.8,4.8v10.7C6.4,18,0,26.1,0,35.6s6.4,17.6,15.2,20.1v18.4c0,2.6,2.1,4.8,4.8,4.8
			h37.7c0.4,0,0.9-0.2,1.2-0.5L70.4,67c0.3-0.3,0.5-0.7,0.5-1.2v-61C70.9,2.1,68.7,0,66.1,0z M3.4,35.6c0-9.7,7.9-17.6,17.5-17.6
			c9.7,0,17.5,7.9,17.5,17.6c0,9.7-7.9,17.6-17.5,17.6C11.2,53.2,3.4,45.3,3.4,35.6z M59.3,73.2v-4.4c0-0.8,0.6-1.4,1.4-1.4h4.4
			L59.3,73.2z M67.5,64.1h-6.7c-2.6,0-4.8,2.1-4.8,4.8v6.7H20c-0.8,0-1.4-0.6-1.4-1.4V56.4c0.8,0.1,1.6,0.1,2.4,0.1
			c6.3,0,11.9-2.8,15.8-7.2H47c0.9,0,1.7-0.8,1.7-1.7S47.9,46,47,46h-7.9c1.5-2.6,2.4-5.5,2.7-8.6H47c0.9,0,1.7-0.8,1.7-1.7
			s-0.8-1.7-1.7-1.7h-5.2c-0.2-3.1-1.1-6-2.6-8.6H47c0.9,0,1.7-0.8,1.7-1.7c0-0.9-0.8-1.7-1.7-1.7H36.9c-3.8-4.6-9.6-7.4-16-7.4
			c-0.8,0-1.6,0-2.4,0.1v-1.6h49V64.1z M67.5,9.9h-49V4.8c0-0.8,0.6-1.4,1.4-1.4h46.1c0.8,0,1.4,0.6,1.4,1.4V9.9z M53.6,25.5h5.6
			c0.9,0,1.7-0.8,1.7-1.7c0-0.9-0.8-1.7-1.7-1.7h-5.6c-0.9,0-1.7,0.8-1.7,1.7C52,24.8,52.7,25.5,53.6,25.5z M53.6,37.5h5.6
			c0.9,0,1.7-0.8,1.7-1.7s-0.8-1.7-1.7-1.7h-5.6c-0.9,0-1.7,0.8-1.7,1.7S52.7,37.5,53.6,37.5z M53.6,49.4h5.6c0.9,0,1.7-0.8,1.7-1.7
			S60.2,46,59.2,46h-5.6c-0.9,0-1.7,0.8-1.7,1.7S52.7,49.4,53.6,49.4z M59.2,57.9H43.5c-0.9,0-1.7,0.8-1.7,1.7s0.8,1.7,1.7,1.7h15.8
			c0.9,0,1.7-0.8,1.7-1.7S60.2,57.9,59.2,57.9z M34,27.1L32,25.1c-0.6-0.6-1.3-0.9-2.1-0.9s-1.5,0.3-2.1,0.9L17,35.9l-3-3
			C13.5,32.3,12.7,32,12,32c-0.8,0-1.5,0.3-2.1,0.9l-2.1,2.1c-1.1,1.1-1.1,3,0,4.1l7.1,7.1c0.6,0.6,1.3,0.9,2.1,0.9h0
			c0.8,0,1.5-0.3,2.1-0.9L34,31.3C35.2,30.1,35.2,28.3,34,27.1z M17,43.5L10.5,37l1.4-1.4l3.9,3.9c0.7,0.7,1.7,0.7,2.4,0l11.7-11.7
			l1.4,1.4L17,43.5z"/>
	</g>
</g>
</svg>
