<?xml version="1.0" encoding="utf-8"?>
<!-- Generator: Adobe Illustrator 21.1.0, SVG Export Plug-In . SVG Version: 6.00 Build 0)  -->
<svg version="1.1" id="Forma_1_1_" xmlns="http://www.w3.org/2000/svg" xmlns:xlink="http://www.w3.org/1999/xlink" x="0px" y="0px"
	 viewBox="0 0 78.1 72" style="enable-background:new 0 0 78.1 72;" xml:space="preserve">
<style type="text/css">
	.st0{fill-rule:evenodd;clip-rule:evenodd;fill:#D91E18;}
</style>
<g id="Forma_1">
	<g>
		<path class="st0" d="M72,6.1h-1.2V3.7c0-2-1.6-3.7-3.7-3.7s-3.7,1.6-3.7,3.7v2.4H14.6V3.7C14.6,1.6,13,0,11,0S7.3,1.6,7.3,3.7v2.4
			H6.1C2.7,6.1,0,8.8,0,12.2v53.7C0,69.3,2.7,72,6.1,72H72c3.4,0,6.1-2.7,6.1-6.1V12.2C78.1,8.8,75.4,6.1,72,6.1z M65.9,3.7
			c0-0.7,0.5-1.2,1.2-1.2s1.2,0.5,1.2,1.2v3.7c0,0,0,0,0,0s0,0,0,0V11c0,0.7-0.5,1.2-1.2,1.2s-1.2-0.5-1.2-1.2V3.7z M9.8,3.7
			c0-0.7,0.5-1.2,1.2-1.2s1.2,0.5,1.2,1.2V11c0,0.7-0.5,1.2-1.2,1.2S9.8,11.7,9.8,11V3.7z M75.7,17.1h-2.4c-0.7,0-1.2,0.5-1.2,1.2
			s0.5,1.2,1.2,1.2h2.4v46.4c0,2-1.6,3.7-3.7,3.7H6.1c-2,0-3.7-1.6-3.7-3.7V19.5H61c0.7,0,1.2-0.5,1.2-1.2s-0.5-1.2-1.2-1.2H2.4
			v-4.9c0-2,1.6-3.7,3.7-3.7h1.2V11c0,2,1.6,3.7,3.7,3.7s3.7-1.6,3.7-3.7V8.5h48.8V11c0,2,1.6,3.7,3.7,3.7s3.7-1.6,3.7-3.7V8.5H72
			c2,0,3.7,1.6,3.7,3.7V17.1z M68.4,17.1h-2.4c-0.7,0-1.2,0.5-1.2,1.2s0.5,1.2,1.2,1.2h2.4c0.7,0,1.2-0.5,1.2-1.2S69,17.1,68.4,17.1
			z M30.8,35.7l6.7-6.7c0,0,0.1-0.1,0.1-0.1c0,0,0,0,0,0c0,0,0,0,0-0.1c0,0,0,0,0-0.1c0,0,0,0,0-0.1c0,0,0,0,0-0.1c0,0,0,0,0-0.1
			c0,0,0,0,0-0.1c0,0,0,0,0-0.1c0,0,0,0,0-0.1c0,0,0,0,0-0.1c0,0,0,0,0-0.1c0,0,0,0,0-0.1c0-0.1,0-0.2,0-0.2c0,0,0,0,0-0.1
			c0,0,0,0,0-0.1c0,0,0,0,0-0.1c0,0,0,0,0-0.1c0,0,0,0,0-0.1c0,0,0,0,0-0.1c0,0,0,0,0-0.1c0,0,0,0,0-0.1c0,0,0,0,0-0.1
			c0,0,0,0,0-0.1c0,0,0,0,0-0.1c0,0,0,0,0,0c-0.1-0.1-0.1-0.1-0.2-0.2c0,0,0,0,0,0c0,0,0,0-0.1,0c0,0,0,0-0.1,0c0,0,0,0-0.1,0
			c0,0,0,0-0.1,0c0,0,0,0-0.1,0c0,0,0,0-0.1,0c0,0,0,0-0.1,0c0,0,0,0-0.1,0c0,0,0,0-0.1,0c0,0,0,0-0.1,0c0,0,0,0-0.1,0
			c0,0-0.1,0-0.1,0c0,0,0,0,0,0H23.2c-0.7,0-1.2,0.5-1.2,1.2c0,0.7,0.5,1.2,1.2,1.2h10.5l-6.5,6.5c0,0-0.1,0.1-0.1,0.1c0,0,0,0,0,0
			c0,0,0,0,0,0.1c0,0,0,0,0,0.1c0,0,0,0,0,0.1c0,0,0,0,0,0.1c0,0,0,0,0,0.1c0,0,0,0,0,0.1c0,0,0,0,0,0.1c0,0,0,0,0,0.1
			c0,0,0,0,0,0.1c0,0,0,0,0,0.1c0,0,0,0,0,0.1c0,0.1,0,0.2,0,0.2c0,0,0,0,0,0.1c0,0,0,0,0,0.1c0,0,0,0,0,0.1c0,0,0,0,0,0.1
			c0,0,0,0,0,0.1c0,0,0,0,0,0.1c0,0,0,0,0,0.1c0,0,0,0,0,0.1c0,0,0,0,0,0.1c0,0,0,0,0,0.1c0,0,0,0,0,0.1c0,0,0,0,0,0
			c0.1,0.1,0.1,0.1,0.2,0.2c0,0,0,0,0,0c0,0,0,0,0.1,0c0,0,0,0,0.1,0c0,0,0,0,0.1,0c0,0,0,0,0.1,0c0,0,0,0,0.1,0c0,0,0,0,0.1,0
			c0,0,0,0,0.1,0c0,0,0,0,0.1,0c0,0,0,0,0.1,0c0,0,0,0,0.1,0c0,0,0,0,0.1,0c0,0,0.1,0,0.1,0c6.1,0,11,4.9,11,11s-4.9,11-11,11
			c-2.9,0-5.6-1.1-7.7-3.1c-0.5-0.5-1.3-0.5-1.7,0c-0.5,0.5-0.5,1.3,0,1.7c2.5,2.5,5.9,3.8,9.4,3.8c7.4,0,13.4-6,13.4-13.4
			C41.5,42.3,36.9,36.9,30.8,35.7z M53.7,27.9C53.7,27.9,53.7,27.9,53.7,27.9c0-0.1,0-0.1,0-0.1c0,0,0,0,0-0.1c0,0,0,0,0-0.1
			c0,0,0,0,0-0.1c0,0,0,0,0-0.1c0,0,0,0,0-0.1c0,0,0,0,0-0.1c0,0,0,0,0-0.1c0,0,0,0,0-0.1c0,0,0,0,0,0c-0.1-0.1-0.1-0.1-0.2-0.2
			c0,0,0,0,0,0c0,0,0,0-0.1,0c0,0,0,0-0.1,0c0,0,0,0-0.1,0c0,0,0,0-0.1,0c0,0,0,0-0.1,0c0,0,0,0-0.1,0c0,0,0,0-0.1,0c0,0,0,0-0.1,0
			c0,0,0,0-0.1,0c0,0,0,0-0.1,0c0,0,0,0-0.1,0c0,0-0.1,0-0.1,0c0,0,0,0,0,0s0,0,0,0c0,0-0.1,0-0.1,0c0,0,0,0-0.1,0c0,0,0,0-0.1,0
			c0,0,0,0-0.1,0c0,0,0,0-0.1,0c0,0,0,0-0.1,0c0,0,0,0-0.1,0c0,0,0,0-0.1,0c0,0,0,0-0.1,0c0,0,0,0-0.1,0c0,0,0,0-0.1,0
			c0,0,0,0-0.1,0c0,0,0,0,0,0c0,0-0.1,0.1-0.1,0.1l-6.1,6.1c-0.5,0.5-0.5,1.2,0,1.7c0.2,0.2,0.6,0.4,0.9,0.4s0.6-0.1,0.9-0.4l4-4v30
			c0,0.7,0.5,1.2,1.2,1.2c0.7,0,1.2-0.5,1.2-1.2V28.1C53.7,28,53.7,28,53.7,27.9C53.7,27.9,53.7,27.9,53.7,27.9z"/>
	</g>
</g>
</svg>
